<?xml version="1.0" encoding="UTF-8"?>
<svg id="Camada_1" data-name="Camada 1" xmlns="http://www.w3.org/2000/svg" viewBox="0 0 160 160">
  <defs>
    <style>
      .cls-1 {
        fill: #f0fff1;
      }

      .cls-2 {
        fill: #8367c7;
      }

      .cls-3 {
        fill: #2c2a4a;
      }
    </style>
  </defs>
  <rect class="cls-3" x="1.64" y="44.6" width="157.14" height="70.4" rx="19.56" ry="19.56"/>
  <path class="cls-2" d="M54.67,56.93s-11.51,35.14-11.51,35.14c-.63,1.83-2.35,3.05-4.28,3.05h0c-2.25,0-4.25-1.43-4.98-3.56l-5.12-14.89c-.73-2.11.84-4.32,3.08-4.32h0c1.42,0,2.68.92,3.11,2.28l2.82,8.95c.29.91,1.57.91,1.86,0l7.56-24.41c.41-1.34,1.65-2.25,3.06-2.25h4.41Z"/>
  <g>
    <path class="cls-2" d="M60.93,92.73c-.43.36-.82.68-1.16.97-.34.29-.8.57-1.37.86-.56.27-1.11.48-1.64.63-.53.14-1.28.21-2.23.21-1.78,0-3.26-.6-4.44-1.79s-1.76-2.7-1.76-4.52c0-1.49.3-2.7.9-3.62s1.46-1.65,2.58-2.19c1.14-.55,2.49-.93,4.07-1.15s3.27-.38,5.09-.5v-.11c0-1.11-.41-1.88-1.23-2.3s-2.05-.64-3.68-.64c-.74,0-1.58-.1-2.57.17s-1.74.47-2.68.88l-.78.38,1.31-4.24c.19-.62.72-1.08,1.36-1.19h.04c1.43-.25,3.8-.45,5.25-.42,3.08.08,5.35.65,6.81,1.72,1.58,1.15,2.37,2.91,2.37,5.28v13.69h-4.51c-.95,0-1.73-.77-1.73-1.73v-.41ZM60.93,89.61v-4.19c-1.06.11-1.92.2-2.58.28-.66.08-1.3.23-1.94.46-.55.19-.98.48-1.28.87-.3.39-.46.9-.46,1.55,0,.94.25,1.59.76,1.94s1.26.53,2.25.53c.55,0,1.11-.13,1.68-.38s1.09-.6,1.56-1.06Z"/>
    <path class="cls-1" d="M76.46,95.08h-3.14c-1.73,0-3.14-1.4-3.14-3.14v-24.75h3.14c1.73,0,3.14,1.4,3.14,3.14v24.75Z"/>
    <path class="cls-1" d="M108.34,94.57h-4.05c-1.23,0-2.22-.99-2.22-2.22h0c-1.09.91-2.08,1.6-2.99,2.07s-1.99.71-3.24.71c-1.99,0-3.55-.63-4.67-1.89-1.12-1.26-1.68-3.16-1.68-5.69v-13.1h4.09c1.23,0,2.22.99,2.22,2.22v7.76c0,1.04.03,1.89.08,2.54s.18,1.21.39,1.67c.19.42.49.74.89.95s.96.32,1.68.32c.44,0,.96-.11,1.57-.32.1-.04.2-.07.3-.11.83-.34,1.38-1.16,1.38-2.06v-10.74c0-1.23.99-2.22,2.22-2.22h1.83c1.23,0,2.22.99,2.22,2.22v17.9Z"/>
    <path class="cls-1" d="M131.91,84.79c0,3.31-.9,5.92-2.71,7.82-1.81,1.91-4.37,2.86-7.68,2.86s-5.84-.95-7.66-2.86c-1.82-1.91-2.73-4.51-2.73-7.82s.91-5.96,2.73-7.86c1.82-1.89,4.38-2.84,7.66-2.84s5.85.95,7.67,2.86c1.82,1.91,2.72,4.52,2.72,7.84ZM125.47,84.83c0-1.19-.1-2.19-.3-2.98-.2-.79-.47-1.43-.82-1.91-.37-.5-.79-.85-1.25-1.05s-1-.3-1.59-.3c-.56,0-1.07.09-1.52.26-.45.17-.87.5-1.25.99-.36.47-.65,1.1-.86,1.92-.21.81-.32,1.83-.32,3.06s.1,2.23.3,2.98c.2.76.47,1.37.79,1.82.33.47.75.81,1.25,1.02s1.06.32,1.67.32c.5,0,1.01-.11,1.53-.32s.93-.54,1.24-.97c.37-.51.65-1.13.84-1.85.19-.72.29-1.72.29-3Z"/>
  </g>
  <path class="cls-1" d="M82.7,67.2h-3.14v24.75c0,1.73,1.41,3.14,3.14,3.14h3.14v-24.75c0-1.73-1.41-3.14-3.14-3.14Z"/>
</svg>